<svg width="96" height="96" xmlns="http://www.w3.org/2000/svg" xmlns:xlink="http://www.w3.org/1999/xlink" xml:space="preserve" overflow="hidden"><g transform="translate(-475 -102)"><path d="M512 142.08C512.538 141.521 512.839 140.776 512.84 140 512.843 139.212 512.53 138.455 511.97 137.9L502.49 128.41C501.93 127.85 501.172 127.533 500.38 127.53 499.592 127.536 498.837 127.852 498.28 128.41L497.23 129.47 510.91 143.12Z"/><path d="M525.75 166.36C525.177 166.943 524.24 166.95 523.657 166.377 523.651 166.371 523.646 166.366 523.64 166.36L506.64 149.36C506.055 148.774 506.055 147.826 506.64 147.24L508.76 145.18 495.13 131.56C494.25 132.44 493.39 133.3 492.83 133.83 491.458 135.112 490.638 136.875 490.54 138.75 490.416 141.808 490.962 144.855 492.14 147.68 493.268 150.211 494.652 152.62 496.27 154.87 501.896 163.311 509.012 170.658 517.27 176.55 518.649 177.57 520.099 178.489 521.61 179.3 525.025 181.095 528.766 182.183 532.61 182.5 535.24 182.691 537.814 181.68 539.61 179.75L541.49 177.87 527.81 164.24Z"/><path d="M544.63 170.51 535.15 161C533.981 159.843 532.099 159.843 530.93 161L529.93 162.08 543.57 175.78 544.63 174.78C545.787 173.611 545.787 171.729 544.63 170.56Z"/><path d="M537.14 152 533.14 152C532.706 146.263 528.602 141.471 523 140.16L523 136.08C530.826 137.481 536.673 144.063 537.14 152Z"/><path d="M546.7 150C546.7 150.67 546.7 151.34 546.61 152L542.61 152C542.679 151.336 542.712 150.668 542.71 150 542.693 139.123 533.877 130.311 523 130.3L523 126.3C536.085 126.311 546.689 136.915 546.7 150Z"/><path d="M557 150C557 150.67 557 151.34 556.93 152L552.93 152C552.93 151.34 553.01 150.67 553.01 150 553.01 133.984 540.026 121 524.01 121 524.007 121 524.003 121 524 121 523.66 121 523.33 121 523 121L523 117 524 117C542.225 117 557 131.775 557 150Z"/></g></svg>